<svg width="92.000000" height="141.000000" viewBox="0 0 92 141" fill="none" xmlns="http://www.w3.org/2000/svg" xmlns:xlink="http://www.w3.org/1999/xlink">
	<desc>
			Created with Pixso.
	</desc>
	<defs/>
	<path id="path14" d="M91.15 65.3C90.96 63.37 89.85 61.53 88.11 60.26C87.13 59.54 85.99 59.01 84.73 58.68C84.09 58.51 83.42 58.4 82.74 58.35C81.29 58.23 79.78 58.27 78.32 58.3C77.67 58.32 77.01 58.33 76.36 58.34C75.13 58.34 68.11 58.79 62.99 59.11C59.45 59.34 56.33 59.42 56.33 59.42L56.61 62.14L74.38 60.93L73.8 61.53C73.33 62.01 72.94 62.52 72.62 63.05C71.84 64.36 71.5 65.81 71.64 67.26C72.08 71.62 76.81 74.72 82.19 74.18C84.81 73.92 87.19 72.84 88.88 71.15C90.56 69.48 91.36 67.4 91.15 65.3ZM88.71 65.54C88.82 66.69 88.54 67.8 87.95 68.79C86.84 70.65 84.64 72.04 82 72.3C77.97 72.71 74.42 70.34 74.09 67.01C73.93 65.39 74.54 63.79 75.82 62.51C77.09 61.25 78.85 60.45 80.79 60.25C84.82 59.85 88.37 62.22 88.71 65.54Z" fill="#4F4F4F" fill-opacity="1.000000" fill-rule="nonzero"/>
	<path id="path16" d="M50.07 56.83L36.01 63.56L18.46 64.76L20.69 61.06L50.07 56.83Z" fill="#4F4F4F" fill-opacity="1.000000" fill-rule="nonzero"/>
	<path id="path18" d="M31.41 138.08C15.12 138.08 1.92 124.88 1.92 108.6C1.92 92.32 15.12 79.12 31.41 79.12C47.69 79.12 60.89 92.32 60.89 108.6C60.89 124.88 47.69 138.08 31.41 138.08Z" stroke="#3E356A" stroke-opacity="1.000000" stroke-width="4.000000" stroke-linejoin="round"/>
	<path id="path20" d="M31.41 79.9C30.97 79.9 30.62 79.55 30.62 79.12L30.62 47.6C30.62 47.17 30.97 46.82 31.41 46.82C31.84 46.82 32.19 47.17 32.19 47.6L32.19 79.12C32.19 79.55 31.84 79.9 31.41 79.9Z" fill="#3E356A" fill-opacity="1.000000" fill-rule="nonzero"/>
	<path id="path22" d="M21.44 4.39C21.8 4.41 22.16 4.44 22.52 4.48C22.8 4.52 23.07 4.56 23.34 4.6C24.35 4.31 25.37 4.14 26.39 4.1C26.69 3.85 26.99 3.61 27.3 3.37C25.35 3.16 23.31 3.53 21.44 4.39ZM40.82 4.98C41.04 5.03 41.27 5.08 41.49 5.14C41.36 4.77 41.18 4.4 40.96 4.05C39.96 2.51 37.91 1.54 35.75 1.57C34.28 1.59 32.75 2.01 31.1 2.84C32.18 3.35 33.17 4.04 34.02 4.84C36.27 4.39 38.61 4.44 40.82 4.98ZM28.74 4.26C29.86 4.46 30.97 4.85 32 5.4C32.07 5.38 32.13 5.35 32.19 5.33C31.35 4.69 30.4 4.18 29.38 3.83C29.16 3.97 28.95 4.11 28.74 4.26ZM27.25 5.67C27.97 5.96 28.67 6.29 29.33 6.66C29.57 6.52 29.82 6.37 30.08 6.24C29.34 5.97 28.57 5.79 27.77 5.71C27.6 5.69 27.43 5.68 27.25 5.67ZM35.71 6.89C35.85 7.11 35.98 7.33 36.1 7.55C36.81 7.11 37.62 6.68 38.51 6.35C38.2 6.36 37.9 6.38 37.59 6.42C36.94 6.51 36.31 6.67 35.71 6.89ZM40.07 7.5C40.63 7.57 41.18 7.66 41.73 7.78C41.75 7.62 41.76 7.45 41.77 7.29C41.19 7.29 40.62 7.37 40.07 7.5ZM25.35 7.45C26.15 7.5 26.94 7.61 27.72 7.79C27.77 7.75 27.82 7.71 27.87 7.67C27.23 7.35 26.55 7.07 25.86 6.84C25.68 7.04 25.51 7.24 25.35 7.45ZM30.83 7.62C30.95 7.7 31.06 7.78 31.17 7.87C31.44 7.64 31.71 7.41 31.99 7.2C31.95 7.18 31.92 7.15 31.88 7.13C31.67 7.21 31.47 7.31 31.26 7.4C31.12 7.47 30.98 7.54 30.83 7.62ZM23.44 6.21C22.02 6.66 20.65 7.38 19.42 8.34C20.69 7.85 22.04 7.56 23.41 7.46C23.65 7.09 23.92 6.72 24.2 6.37C23.95 6.31 23.69 6.26 23.44 6.21ZM32.39 8.89C32.4 8.9 32.41 8.91 32.43 8.92C32.78 8.74 33.14 8.57 33.52 8.41C33.44 8.34 33.36 8.27 33.29 8.2C32.98 8.42 32.68 8.65 32.39 8.89ZM43.27 8.21C44.23 8.53 45.17 8.95 46.06 9.46C45.45 8.92 44.79 8.42 44.1 7.99C43.85 7.84 43.59 7.7 43.33 7.57C43.32 7.78 43.3 8 43.27 8.21ZM24.07 9.43C24.59 9.49 25.1 9.63 25.58 9.84C25.8 9.59 26.02 9.34 26.26 9.11C25.61 9.02 24.96 8.98 24.31 8.99C24.22 9.13 24.14 9.28 24.07 9.43ZM37.96 9.16C39.01 9.16 40.11 9.41 41.27 9.89C41.33 9.7 41.39 9.51 41.44 9.32C39.9 8.97 38.31 8.89 36.77 9.12C36.78 9.17 36.8 9.22 36.81 9.26C37.19 9.2 37.57 9.16 37.96 9.16ZM18.81 6C18.2 6.47 17.63 7.01 17.1 7.6C16.26 8.55 15.55 9.61 15.01 10.74C15.04 10.69 15.08 10.64 15.11 10.59C16.48 8.63 18.25 7.05 20.21 5.93C19.74 5.93 19.27 5.96 18.81 6ZM27.71 11.5C27.74 11.51 27.77 11.52 27.8 11.53C27.84 11.54 27.87 11.55 27.9 11.57C28.29 11.01 28.72 10.45 29.2 9.89C28.84 9.75 28.48 9.62 28.11 9.51C27.69 9.87 27.3 10.27 26.93 10.68C27.22 10.93 27.48 11.2 27.71 11.5ZM16.75 11.66C16.85 11.67 16.96 11.69 17.06 11.7C17.62 11.27 18.22 10.88 18.85 10.55C19.87 10 21.08 9.57 22.32 9.43C22.37 9.33 22.41 9.24 22.45 9.15C21.03 9.37 19.64 9.84 18.37 10.56C17.8 10.88 17.26 11.25 16.75 11.66ZM35.31 12.76C35.4 12.89 35.49 13.03 35.58 13.16C35.65 12.64 35.67 12.11 35.64 11.57C35.61 11.5 35.59 11.44 35.56 11.38C35.3 11.53 35.06 11.71 34.83 11.9C35 12.18 35.16 12.47 35.31 12.76ZM20.13 12.61C20.56 12.81 20.97 13.03 21.37 13.28C21.39 13 21.41 12.72 21.45 12.44C21.01 12.48 20.57 12.54 20.13 12.61ZM23.05 12.38C22.97 12.87 22.93 13.38 22.95 13.91C23.19 13.39 23.45 12.89 23.74 12.4C23.51 12.39 23.28 12.38 23.05 12.38ZM28.78 14.15C28.87 14.71 28.89 15.32 28.86 15.97C29.6 14.3 30.58 12.74 31.76 11.34C31.74 11.32 31.72 11.31 31.7 11.3C31.69 11.29 31.67 11.27 31.66 11.26C30.56 12.07 29.58 13.05 28.78 14.15ZM42.7 10.6C43.09 10.82 43.49 11.07 43.89 11.34C46.11 12.85 47.98 14.7 49.44 16.74C49.36 15.73 49.16 14.72 48.87 13.74C47.29 11.92 45.21 10.54 42.95 9.75C42.88 10.03 42.79 10.31 42.7 10.6ZM23.96 15.54C24.31 15.97 24.63 16.43 24.91 16.91C25.48 15.63 26.13 14.38 26.86 13.18C26.81 13.07 26.76 12.96 26.7 12.85C26.29 12.75 25.88 12.66 25.46 12.59C24.86 13.51 24.36 14.5 23.96 15.54ZM15.99 6.48C12.68 7.34 9.73 9.15 7.74 11.69C6.47 13.31 5.64 15.21 5.25 17.18C5.3 17.11 5.35 17.05 5.4 16.99C7.4 14.51 9.76 12.8 12.23 12.04C12.44 11.97 12.65 11.92 12.86 11.87C13.51 9.93 14.55 8.1 15.93 6.55C15.95 6.53 15.97 6.51 15.99 6.48ZM37.27 16.78C37.34 17.01 37.4 17.24 37.46 17.48L39.2 14.4C39.73 13.45 40.27 12.42 40.72 11.37C39.59 10.89 38.35 10.61 37.14 10.8C37.16 10.94 37.18 11.07 37.19 11.2C37.53 12.16 37.71 13.15 37.72 14.16C37.73 15.04 37.57 15.92 37.27 16.78ZM27.14 17.17C26.81 18.02 26.58 18.91 26.47 19.8C26.75 18.96 26.99 18.06 27.14 17.17ZM37.82 20.05C37.82 20.21 37.83 20.37 37.83 20.54C39.47 18.58 41.37 17.07 43.79 17C45.94 16.95 47.75 18.07 49.36 19.63C47.91 16.94 45.72 14.49 43 12.64C42.73 12.45 42.44 12.27 42.12 12.08C41.66 13.16 41.11 14.2 40.56 15.18L37.82 20.05ZM33.66 13.19C32.91 14.24 32.42 15.42 32.13 16.27C31.77 17.33 31.35 18.89 31.29 20.61C32.71 19.31 34 17.69 34.8 15.88C34.6 15.09 34.32 14.31 33.95 13.57C33.86 13.44 33.76 13.31 33.66 13.19ZM28.98 21.24C29.22 21.25 29.47 21.24 29.71 21.22C29.69 19.61 29.96 17.89 30.52 16.11C30.12 16.95 29.79 17.82 29.52 18.71C29.27 19.55 29.09 20.39 28.98 21.24ZM51.52 20.43C51.7 20.84 51.86 21.25 52 21.66C51.95 20.81 51.82 19.96 51.62 19.13C51.61 19.56 51.57 20 51.52 20.43ZM14.28 17.52C14.21 19.04 14.53 20.55 15.42 21.82C15.86 21.69 16.3 21.58 16.76 21.51C18.37 21.12 20.03 21.2 21.45 21.72C21.4 21.16 21.39 20.6 21.42 20.05C21.47 19 21.62 17.95 21.88 16.93C21.7 16.4 21.57 15.84 21.48 15.27C20.33 14.34 18.94 13.69 17.49 13.37C16.17 14.51 15.08 15.93 14.28 17.52ZM23.05 19.31C23.02 19.58 23 19.85 22.99 20.12C22.95 20.8 22.99 21.49 23.08 22.18C23.26 21.49 23.46 20.81 23.68 20.14C23.45 19.88 23.24 19.6 23.05 19.31ZM27.15 22.5C27.11 22.6 27.07 22.7 27.03 22.81C27.11 22.8 27.2 22.79 27.28 22.78C27.28 22.7 27.29 22.62 27.29 22.54C27.25 22.53 27.2 22.51 27.16 22.5C27.16 22.5 27.15 22.5 27.15 22.5ZM12.95 21.56C12.87 22.04 12.82 22.54 12.79 23.03C13 22.9 13.22 22.77 13.44 22.65C13.26 22.3 13.1 21.93 12.95 21.56ZM24.39 23.46C24.4 23.47 24.42 23.48 24.43 23.49C24.58 23.44 24.73 23.38 24.88 23.33C24.9 23.07 24.91 22.82 24.9 22.57C24.86 22.29 24.84 22.03 24.82 21.77C24.66 22.33 24.52 22.89 24.39 23.46ZM31.49 23.17C32.19 23.38 32.86 23.68 33.5 24.03C33.92 23.43 34.27 22.78 34.53 22.09C34.75 21.51 34.91 20.92 35.01 20.3C34.7 20.61 34.37 20.89 34.01 21.15C33.25 21.72 32.43 22.14 31.59 22.42C31.52 22.48 31.46 22.54 31.39 22.59C31.41 22.78 31.45 22.98 31.49 23.17ZM5.02 20.33C5.08 21.77 5.39 23.19 5.95 24.49C6.73 20.86 8.64 17.46 11.44 15.02C11.7 14.79 11.98 14.56 12.26 14.35C12.29 14.11 12.34 13.88 12.39 13.64C10.32 14.36 8.34 15.85 6.62 17.98C6.02 18.72 5.49 19.51 5.02 20.33ZM16.68 23.16C18.07 24.26 19.95 24.88 21.94 24.83C21.99 24.8 22.05 24.76 22.1 24.72C21.99 24.41 21.89 24.09 21.81 23.77C20.51 23.17 19.13 22.89 17.77 22.98C17.53 22.99 17.3 23.02 17.06 23.05C16.94 23.09 16.81 23.12 16.68 23.16ZM29.12 26.26C29.73 26.43 30.33 26.37 30.9 26.15C30.89 26.13 30.89 26.12 30.88 26.1C30.6 25.58 30.38 25.03 30.2 24.46C29.9 24.39 29.6 24.35 29.29 24.32C29.16 24.31 29.02 24.3 28.89 24.29C28.88 24.29 28.88 24.3 28.87 24.3C28.91 24.96 28.99 25.62 29.12 26.26ZM17.5 25.49C18.13 26.07 18.82 26.58 19.55 27.01C19.76 26.76 19.98 26.52 20.2 26.29C19.25 26.15 18.34 25.88 17.5 25.49ZM7.2 26.66C7.21 26.66 7.21 26.67 7.22 26.67C7.54 27.11 7.92 27.51 8.33 27.89C8.89 26.81 9.6 25.82 10.43 24.96C10.23 24.09 10.12 23.2 10.12 22.34C10.11 20.87 10.32 19.41 10.73 18.01C8.74 20.46 7.5 23.52 7.2 26.66ZM21.03 27.74C21.37 27.88 21.72 28 22.08 28.1C22.09 28.09 22.1 28.08 22.11 28.07C22.15 27.58 22.19 27.08 22.25 26.59C21.82 26.94 21.41 27.33 21.03 27.74ZM43.45 27.84C43.99 27.93 44.52 28.04 45.02 28.17C46.37 27.31 47.54 26.13 48.41 24.73C48.74 23.74 49 22.73 49.18 21.7C47.66 20 45.9 18.52 43.83 18.58C41.34 18.64 39.37 20.93 37.61 23.4C37.54 23.49 37.48 23.59 37.41 23.68C37.35 23.9 37.29 24.11 37.22 24.32C37.15 24.53 37.06 24.75 36.97 24.97C38.57 24.89 40.25 25.39 41.73 26.37C42.36 26.79 42.93 27.28 43.45 27.84ZM25.65 27.63C25.93 27.91 26.24 28.16 26.57 28.37C26.6 28.37 26.62 28.36 26.64 28.36C26.35 27.83 26.02 27.31 25.63 26.83C25.61 26.87 25.59 26.91 25.57 26.96C25.61 27.18 25.63 27.41 25.65 27.63ZM39.77 29.76C40.13 29.76 40.49 29.75 40.85 29.71C41.14 29.68 41.42 29.63 41.71 29.57C41.66 29.41 41.58 29.26 41.49 29.12C41.26 29.08 41.03 29.05 40.8 29.02C39.86 28.88 38.94 28.75 38.09 28.58C38.7 28.91 39.26 29.3 39.77 29.76ZM20.02 29.01C19.83 29.3 19.65 29.6 19.49 29.9C19.9 29.72 20.28 29.51 20.65 29.27C20.44 29.19 20.23 29.11 20.02 29.01ZM10.13 29.21C10.91 29.66 11.75 30.02 12.63 30.27C12.39 29.75 12.19 29.23 12 28.69C11.74 28.3 11.51 27.88 11.3 27.45C11.13 27.68 10.97 27.91 10.8 28.16C10.57 28.5 10.35 28.85 10.13 29.21ZM7.16 28.96C7.19 29.47 7.24 29.97 7.33 30.47C7.42 30.11 7.53 29.75 7.66 29.4C7.49 29.26 7.32 29.11 7.16 28.96ZM13.42 27.96C14.35 29.3 15.62 30.29 17.17 30.58C17.28 30.56 17.39 30.54 17.5 30.52C17.78 29.73 18.16 28.98 18.61 28.27C16.97 27.28 15.52 25.92 14.41 24.31C13.89 24.68 13.38 25.11 12.88 25.61C12.9 25.73 12.92 25.85 12.94 25.97C13.05 26.64 13.21 27.31 13.42 27.96ZM44.99 30.03C45.11 30.25 45.21 30.46 45.31 30.69C45.47 30.48 45.62 30.26 45.77 30.04C45.61 29.98 45.44 29.93 45.28 29.88C45.18 29.93 45.09 29.98 44.99 30.03ZM48.01 29.43C48.29 29.62 48.54 29.84 48.77 30.08C49.02 30.34 49.25 30.61 49.48 30.91C50.31 29.69 50.94 28.36 51.37 26.97C51.37 26.82 51.36 26.68 51.36 26.54C51.32 25.65 51.19 24.75 50.99 23.87C50.91 23.77 50.83 23.66 50.74 23.56C50.61 23.9 50.46 24.24 50.3 24.56C50.15 24.86 50 25.14 49.83 25.42C49.35 26.81 48.74 28.15 48.01 29.43ZM23.59 30.01C23.58 30.44 23.58 30.87 23.59 31.3C23.73 30.89 23.85 30.47 23.93 30.04C23.86 30.04 23.78 30.03 23.71 30.02C23.67 30.02 23.63 30.01 23.59 30.01ZM41.07 31.26C41.13 31.35 41.18 31.45 41.24 31.54C41.31 31.66 41.37 31.78 41.44 31.9C41.54 31.65 41.63 31.41 41.69 31.17C41.48 31.21 41.28 31.24 41.07 31.26ZM15.65 32.26C16.02 32.77 16.42 33.25 16.85 33.71C16.88 33.2 16.94 32.69 17.04 32.18C16.58 32.24 16.12 32.26 15.65 32.26ZM42.17 33.86C42.19 33.93 42.2 33.99 42.22 34.06C42.91 33.45 43.57 32.79 44.18 32.09C44.01 31.6 43.8 31.12 43.56 30.67C43.49 30.69 43.43 30.72 43.37 30.74C43.27 31.6 42.92 32.64 42.17 33.86ZM45.92 32.46C46.07 33.03 46.17 33.62 46.22 34.22C47.02 33.66 47.79 32.98 48.48 32.19C48.21 31.82 47.93 31.48 47.63 31.16C47.5 31.02 47.34 30.89 47.17 30.76C46.78 31.35 46.37 31.91 45.92 32.46ZM31.73 31.96C32.56 32.98 33.53 33.85 34.61 34.54C33.8 33.56 33.24 32.41 33.07 31.18C33.03 30.87 33 30.56 33 30.25C32.63 30.44 32.26 30.65 31.92 30.86C31.85 31.11 31.8 31.37 31.76 31.63C31.75 31.74 31.74 31.85 31.73 31.96ZM34.58 29.89C34.56 30.25 34.58 30.6 34.63 30.96C34.87 32.66 36.04 34.15 37.63 35.06C37.69 34.74 37.73 34.42 37.75 34.1C37.83 33.06 37.68 32.01 37.36 31.02C36.38 30.78 35.44 30.39 34.58 29.89ZM39.08 31.3C39.3 32.25 39.39 33.22 39.32 34.21C39.3 34.57 39.25 34.93 39.19 35.29C39.46 34.95 39.73 34.6 39.99 34.25C40.15 34.05 40.31 33.83 40.47 33.6C40.32 33.16 40.12 32.74 39.89 32.34C39.66 31.97 39.4 31.62 39.11 31.3C39.1 31.3 39.09 31.3 39.08 31.3ZM44.61 33.95C43.97 34.61 43.29 35.23 42.57 35.81C43.28 35.67 43.99 35.43 44.68 35.1C44.68 34.71 44.66 34.33 44.61 33.95ZM18.42 35.21C18.94 35.64 19.49 36.04 20.06 36.41C20.89 35.72 21.61 34.91 22.21 34.06C22.16 33.71 22.13 33.35 22.1 32.99C22.05 32.34 22.03 31.7 22.02 31.06C21 31.7 19.85 32.12 18.63 32.22C18.42 33.19 18.35 34.2 18.42 35.21ZM23.85 34.43C23.98 35.31 24.2 36.22 24.52 37.07C24.53 34.61 25.43 32.15 27.03 30.34C26.76 30.24 26.51 30.13 26.26 30C26.01 30.03 25.76 30.05 25.51 30.06C25.25 31.62 24.65 33.14 23.85 34.43ZM46.19 36.21C46.13 36.8 46.02 37.39 45.86 37.96C47.31 36.94 48.55 35.58 49.48 33.99C49.45 33.93 49.43 33.87 49.4 33.82C48.79 34.42 48.12 34.98 47.4 35.47C47.01 35.74 46.61 35.99 46.19 36.21ZM21.5 37.23C22.04 37.51 22.61 37.75 23.18 37.97C22.95 37.4 22.75 36.78 22.58 36.12C22.25 36.51 21.88 36.88 21.5 37.23ZM32.07 34.58C32.54 35.98 33.46 37.27 34.71 38.2C35.44 37.99 36.17 37.72 36.88 37.42C36.89 37.39 36.91 37.35 36.93 37.32C35.16 36.78 33.49 35.84 32.07 34.58ZM27.81 31.86C26.42 33.69 25.8 36.16 26.2 38.47C26.55 37.94 26.85 37.38 27.09 36.8C26.98 36 27 35.17 27.21 34.33C27.36 33.72 27.59 33.17 27.88 32.66C27.87 32.39 27.84 32.12 27.81 31.86ZM8.53 34.13C9.61 36.19 11.32 37.91 13.61 38.39C14.9 38.65 16.17 38.49 17.36 38.04C17.16 37.38 17.02 36.7 16.93 36.03C15.63 34.88 14.51 33.55 13.61 32.1C12.1 31.85 10.68 31.34 9.4 30.61C9.06 31.34 8.77 32.09 8.53 32.85C8.51 33.28 8.51 33.7 8.53 34.13ZM27.74 38.95C27.75 38.95 27.75 38.95 27.76 38.95C27.76 38.95 27.75 38.94 27.75 38.93C27.75 38.94 27.74 38.95 27.74 38.95ZM28.73 36.93C28.88 37.64 29.17 38.35 29.59 39.01C30.67 38.99 31.76 38.87 32.84 38.66C31.15 37 30.15 34.73 30.14 32.47C30.11 32.43 30.08 32.4 30.06 32.36C29.84 32.59 29.64 32.84 29.46 33.1C29.46 33.38 29.44 33.66 29.42 33.94C29.33 34.97 29.09 35.97 28.73 36.93ZM3.79 22.89C2.35 26.62 2.14 30.72 3.35 34.3C4.03 36.32 5.17 38.15 6.62 39.66C6.14 37.77 6.2 35.75 6.64 33.77C6.23 32.78 5.94 31.76 5.78 30.76C5.58 29.56 5.52 28.33 5.6 27.11C4.74 25.84 4.14 24.4 3.79 22.89ZM42.31 37.61C42.21 38.31 42.04 39 41.8 39.68C42.19 39.61 42.58 39.51 42.96 39.39C43.24 39.31 43.51 39.21 43.78 39.1C44.09 38.42 44.33 37.72 44.48 37C43.77 37.27 43.04 37.47 42.31 37.61ZM37.52 39.54C38.32 39.76 39.17 39.86 40.04 39.85C40.34 39.18 40.56 38.49 40.69 37.79C40.35 37.81 40.01 37.81 39.66 37.79C39.36 37.96 39.05 38.13 38.74 38.29C38.35 38.72 37.94 39.14 37.52 39.54ZM30.84 40.52C31.02 40.68 31.22 40.84 31.42 41C31.48 41.04 31.54 41.09 31.61 41.13C32.55 40.93 33.5 40.55 34.4 39.99C34.42 39.98 34.45 39.96 34.48 39.94C34.46 39.93 34.44 39.92 34.43 39.91C33.24 40.22 32.04 40.42 30.84 40.52ZM27.04 40.46C27.12 40.51 27.2 40.56 27.28 40.61C27.9 40.97 28.61 41.18 29.36 41.26C29.16 41.05 28.96 40.82 28.77 40.58C28.19 40.56 27.61 40.53 27.04 40.46ZM9.32 41.87C9.56 42.03 9.81 42.18 10.07 42.32C9.25 41.25 8.58 40.09 8.08 38.89C8.29 39.95 8.69 40.96 9.32 41.87ZM19.3 38.84C19.86 40.2 20.68 41.48 21.72 42.56C22.79 41.99 23.78 41.25 24.63 40.4C24.51 40.26 24.39 40.11 24.28 39.95C23.79 39.82 23.3 39.68 22.82 39.5C21.89 39.18 21 38.77 20.15 38.3C19.87 38.5 19.59 38.68 19.3 38.84ZM34.78 42.66C35.6 42.91 36.51 43.11 37.53 43.28C37.98 42.86 38.4 42.41 38.8 41.91C38.93 41.74 39.06 41.57 39.17 41.4C38.26 41.33 37.37 41.16 36.53 40.88C36.01 41.51 35.42 42.11 34.78 42.66ZM44.93 40.31C44.33 41.47 43.53 42.55 42.59 43.51C45.15 43.3 48.13 42.45 49.51 39.88C50.16 38.67 50.29 37.29 50.06 35.95C48.71 37.83 46.95 39.35 44.93 40.31ZM39.5 43.52C39.72 43.53 39.95 43.55 40.21 43.56C41.12 42.84 41.92 42.02 42.58 41.12C42.07 41.24 41.55 41.32 41.03 41.37C40.74 41.9 40.41 42.4 40.03 42.88C39.86 43.1 39.68 43.31 39.5 43.52ZM28.27 42.66C28.67 43.13 29.12 43.56 29.62 43.96C30.32 43.67 30.98 43.35 31.59 42.99C31.48 42.92 31.36 42.85 31.25 42.78C30.22 42.92 29.21 42.89 28.27 42.66ZM13.46 43.65C14.36 43.86 15.28 43.98 16.2 43.98C17.58 43.98 18.94 43.72 20.21 43.24C19.23 42.13 18.45 40.86 17.88 39.51C16.44 40.06 14.88 40.25 13.29 39.93C11.74 39.6 10.42 38.83 9.32 37.79C10.15 39.99 11.58 42.04 13.46 43.65ZM22.94 43.66C23.71 44.27 24.57 44.79 25.49 45.21C26.35 45.03 27.16 44.82 27.93 44.57C26.99 43.69 26.21 42.68 25.63 41.6C24.83 42.39 23.92 43.08 22.94 43.66ZM16.66 45.73C18.45 45.96 20.26 45.9 21.86 45.75C22.24 45.71 22.61 45.67 22.97 45.62C22.45 45.28 21.95 44.91 21.48 44.5C21.46 44.48 21.44 44.46 21.42 44.44C19.82 45.14 18.08 45.54 16.3 45.55C16.42 45.61 16.54 45.67 16.66 45.73ZM31.13 45.01C31.78 45.38 32.46 45.7 33.18 45.96C34.08 45.59 34.99 45.13 35.86 44.57C35.01 44.38 34.14 44.13 33.28 43.79C33.2 43.85 33.13 43.89 33.05 43.94C32.45 44.33 31.81 44.68 31.13 45.01ZM28.21 46.13C28.98 46.31 29.76 46.42 30.54 46.48C30.14 46.25 29.75 46 29.37 45.74C29 45.88 28.61 46.01 28.21 46.13ZM37.68 46.86C39.26 46.96 40.97 46.87 42.83 46.6C46.34 46.09 49.13 45.11 51.35 43.59C53.99 41.79 55.75 39.2 56.17 36.49C56.69 33.15 55.32 29.99 53.3 26.98C53.18 27.45 53.04 27.92 52.88 28.38C52.7 30.39 52.12 32.34 51.21 34.08C51.94 36.17 52.02 38.52 50.89 40.62C48.77 44.57 43.99 45.22 40.69 45.15C39.77 45.82 38.76 46.4 37.68 46.86ZM21.91 47.32C23.54 47.56 25.24 47.61 26.97 47.45C26.4 47.28 25.83 47.08 25.28 46.85C24.25 47.05 23.16 47.2 22.01 47.31C21.97 47.32 21.94 47.32 21.91 47.32ZM24.96 49.11C21.83 49.11 18.83 48.48 16.2 47.25C13.3 46.85 10.46 45.77 8.5 43.4C8.4 43.27 8.29 43.14 8.19 43.01C5.32 41.08 3 38.19 1.86 34.8C0.27 30.09 0.91 24.56 3.44 19.92C3.4 16.69 4.43 13.37 6.5 10.72C9.22 7.26 13.54 5.01 18.21 4.48C21.02 2.41 24.47 1.42 27.72 1.83C28.21 1.9 28.69 1.99 29.15 2.12C31.48 0.72 33.64 0.03 35.73 0C38.46 -0.04 40.97 1.18 42.28 3.2C42.81 4.02 43.12 4.88 43.26 5.78C43.37 5.83 43.48 5.88 43.59 5.93C45.95 6.5 47.79 8.15 49.05 10.28C49.4 10.7 49.72 11.12 50.01 11.54C52.84 15.56 54.12 20.38 53.67 24.79C56.3 28.38 58.4 32.4 57.72 36.73C57.23 39.87 55.23 42.84 52.23 44.89C49.81 46.54 46.81 47.61 43.06 48.16C39.66 48.65 36.71 48.56 34.1 47.89C33.36 48 32.62 48.07 31.89 48.09C31.24 48.28 30.62 48.44 30.05 48.56C28.34 48.93 26.63 49.11 24.96 49.11Z" fill="#3E356A" fill-opacity="1.000000" fill-rule="nonzero"/>
	<path id="path24" d="M39.04 125.99C38.73 125.99 38.44 125.8 38.31 125.49C37.19 122.63 34.48 120.79 31.41 120.79C28.34 120.79 25.62 122.63 24.5 125.49C24.34 125.89 23.88 126.09 23.48 125.93C23.08 125.77 22.88 125.32 23.04 124.91C24.4 121.45 27.68 119.21 31.41 119.21C35.13 119.21 38.41 121.45 39.78 124.91C39.93 125.32 39.74 125.77 39.33 125.93C39.24 125.97 39.14 125.99 39.04 125.99Z" fill="#3E356A" fill-opacity="1.000000" fill-rule="nonzero"/>
	<path id="path26" d="M20.78 111.04C17.48 111.04 14.57 109.06 13.37 105.99C13.21 105.59 13.4 105.13 13.81 104.98C14.21 104.82 14.67 105.01 14.83 105.42C15.8 107.88 18.13 109.47 20.78 109.47C23.42 109.47 25.76 107.88 26.72 105.42C26.88 105.01 27.34 104.82 27.74 104.98C28.15 105.13 28.35 105.59 28.19 105.99C26.98 109.06 24.07 111.04 20.78 111.04Z" fill="#3E356A" fill-opacity="1.000000" fill-rule="nonzero"/>
	<path id="path28" d="M42.04 111.04C38.74 111.04 35.83 109.06 34.63 105.99C34.47 105.59 34.66 105.13 35.07 104.98C35.47 104.82 35.93 105.01 36.09 105.42C37.06 107.88 39.39 109.47 42.04 109.47C44.68 109.47 47.02 107.88 47.98 105.42C48.14 105.01 48.6 104.82 49 104.98C49.41 105.13 49.61 105.59 49.45 105.99C48.24 109.06 45.33 111.04 42.04 111.04Z" fill="#3E356A" fill-opacity="1.000000" fill-rule="nonzero"/>
	<path id="path30" d="M81.08 41.2C81.01 41.34 80.93 41.48 80.85 41.62C80.01 43.02 78.68 44.17 77.06 44.88C73.35 46.52 69.24 45.36 67.9 42.3C67.24 40.81 67.33 39.1 68.15 37.48C68.96 35.9 70.39 34.59 72.18 33.8C73.96 33.01 75.89 32.84 77.62 33.32C79.36 33.8 80.68 34.89 81.34 36.38C82 37.88 81.91 39.59 81.08 41.2ZM52.99 60.76C52.46 60.9 51.91 60.57 51.77 60.03C51.64 59.49 51.96 58.94 52.5 58.81C53.04 58.67 53.59 59 53.72 59.54C53.86 60.08 53.53 60.62 52.99 60.76ZM83.59 35.39C81.83 31.38 76.36 29.89 71.42 32.07C66.47 34.25 63.88 39.28 65.64 43.29C66.47 45.17 68.14 46.57 70.34 47.22L71.14 47.46L56.64 54.44L56.51 54.5L53.67 55.84L51.1 57.05L50.96 57.11L50.96 57.11L37.75 63.44L36.96 63.81L36.17 64.19L20.58 71.65L24.34 73.77L53.98 62.97L55.07 62.57L55.94 62.25L55.95 62.19L55.46 57.92C55.46 57.92 73.07 49.34 74.14 48.74C74.71 48.42 75.3 48.1 75.86 47.8C77.15 47.11 78.48 46.4 79.69 45.58C80.25 45.21 80.78 44.78 81.26 44.32C82.2 43.41 82.92 42.39 83.43 41.28C84.31 39.31 84.37 37.17 83.59 35.39Z" fill="#3E356A" fill-opacity="1.000000" fill-rule="nonzero"/>
</svg>
