<svg width="20.000000" height="19.000000" viewBox="0 0 20 19" fill="none" xmlns="http://www.w3.org/2000/svg" xmlns:xlink="http://www.w3.org/1999/xlink">
	<desc>
			Created with Pixso.
	</desc>
	<defs/>
	<path id="path32" d="M1.51 2.17C0.59 3.21 0.16 4.76 0.83 6.03C1.41 7.15 2.84 7.97 4.12 7.47C5.25 7.03 6.04 5.69 5.48 4.55C4.97 3.52 3.6 3.19 2.53 3.47C1.21 3.81 0.43 5.08 0.16 6.3C-0.12 7.54 0 8.96 0.73 10.04C1.09 10.58 1.61 11.01 2.24 11.21C2.97 11.45 3.79 11.38 4.49 11.1C5.18 10.82 5.77 10.34 6.23 9.77C6.68 9.21 7.05 8.57 7.22 7.88C7.39 7.22 7.39 6.48 7.02 5.88C6.72 5.38 6.19 5.06 5.6 4.97C5 4.88 4.38 4.99 3.84 5.24C3.23 5.51 2.77 5.98 2.43 6.53C2.05 7.14 1.83 7.84 1.69 8.54C1.54 9.22 1.45 9.92 1.39 10.62C1.29 11.9 1.35 13.33 2.2 14.38C3.14 15.54 4.79 15.8 6.2 15.44C6.99 15.24 7.72 14.87 8.4 14.43C9.01 14.04 9.59 13.59 10.07 13.05C10.54 12.53 10.93 11.93 11.12 11.25C11.29 10.66 11.29 10.03 11.1 9.44C10.93 8.88 10.6 8.35 10.13 7.99C9.6 7.58 8.94 7.43 8.27 7.54C7.51 7.66 6.84 8.09 6.29 8.59C5.72 9.1 5.24 9.72 4.92 10.4C4.59 11.07 4.42 11.82 4.49 12.56C4.56 13.28 4.84 13.98 5.34 14.52C6.33 15.58 7.92 15.87 9.33 15.7C10.2 15.59 11.05 15.35 11.88 15.07C12.58 14.84 13.27 14.61 13.95 14.32C15.18 13.81 16.42 13.06 17.02 11.85C17.59 10.72 17.48 9.35 16.89 8.25C16.58 7.7 16.15 7.21 15.62 6.86C15.05 6.48 14.38 6.25 13.7 6.17C12.31 6 10.86 6.45 9.86 7.4C8.84 8.37 8.25 9.83 8.43 11.21C8.52 11.83 8.77 12.48 9.29 12.89C9.91 13.37 10.73 13.34 11.45 13.11C12.17 12.87 12.85 12.48 13.44 12.02C14.01 11.57 14.52 11.01 14.85 10.36C15.2 9.69 15.37 8.93 15.3 8.18C15.23 7.48 14.95 6.83 14.47 6.3C14.02 5.79 13.43 5.42 12.79 5.19C12.09 4.94 11.32 4.89 10.58 5C9.08 5.23 7.72 6.09 6.81 7.26C5.94 8.36 5.44 9.75 5.49 11.14C5.53 12.49 6.09 13.81 7 14.83C7.94 15.88 9.24 16.54 10.66 16.69C12.08 16.84 13.58 16.49 14.72 15.64C15.89 14.77 16.68 13.41 16.56 11.95C16.44 10.45 15.51 9.06 14.38 8.06C13.32 7.12 11.92 6.47 10.45 6.6C9.77 6.66 9.1 6.88 8.54 7.26C8 7.63 7.59 8.14 7.37 8.75C6.94 9.92 7.24 11.3 8.02 12.27C8.87 13.34 10.3 13.84 11.67 13.82C13.07 13.81 14.41 13.26 15.44 12.35C16.45 11.45 17.13 10.2 17.22 8.87C17.3 7.56 16.83 6.22 15.92 5.25C15.01 4.28 13.68 3.79 12.33 3.86C11.01 3.93 9.69 4.51 8.9 5.56C8.17 6.55 7.87 8.01 8.58 9.09C9.32 10.23 10.82 10.44 12.09 10.19C13.42 9.94 14.69 9.19 15.51 8.14C15.91 7.62 16.18 7.01 16.25 6.36C16.33 5.72 16.18 5.08 15.87 4.51C15.24 3.37 13.99 2.57 12.68 2.38C11.07 2.14 9.44 2.63 8.06 3.41C6.86 4.09 5.59 5.14 5.42 6.56C5.34 7.17 5.52 7.78 5.91 8.27C6.28 8.74 6.8 9.07 7.36 9.27C7.94 9.48 8.57 9.56 9.18 9.49C9.95 9.39 10.67 9.11 11.33 8.74C12.02 8.36 12.64 7.89 13.26 7.41C13.88 6.92 14.52 6.44 15.05 5.85C15.57 5.28 15.98 4.59 16.09 3.83C16.2 3.11 16 2.41 15.54 1.84C15.11 1.31 14.51 0.91 13.89 0.61C13.17 0.24 12.38 -0.04 11.59 -0.22C10.07 -0.57 8.44 -0.52 7.03 0.17C5.83 0.76 4.81 1.81 4.53 3.12C4.28 4.32 4.6 5.7 5.56 6.54C6.67 7.51 8.25 7.54 9.63 7.26C10.37 7.11 11.1 6.88 11.8 6.59C12.51 6.29 13.21 5.89 13.71 5.3C14.18 4.75 14.5 4.04 14.43 3.31C14.37 2.62 13.98 1.99 13.45 1.53C12.86 1.01 12.11 0.72 11.35 0.53C10.54 0.33 9.7 0.21 8.87 0.14C7.22 0.01 5.52 0.16 4 0.8C2.75 1.34 1.62 2.23 0.92 3.38C0.59 3.95 0.36 4.56 0.28 5.21C0.2 5.82 0.26 6.45 0.43 7.04C0.79 8.26 1.67 9.3 2.92 9.73C3.68 9.99 4.51 10.02 5.3 9.92C6.05 9.82 6.78 9.62 7.46 9.3C8.1 9 8.71 8.58 9.16 8.03C9.61 7.51 9.9 6.88 9.99 6.2C10.08 5.55 9.98 4.87 9.65 4.29C9.33 3.73 8.8 3.32 8.19 3.09C7.58 2.86 6.9 2.83 6.26 2.93C5.57 3.03 4.93 3.32 4.36 3.71C3.75 4.14 3.24 4.68 2.78 5.25C2.31 5.86 1.88 6.51 1.52 7.18C1.16 7.88 0.87 8.62 0.81 9.41C0.76 10.11 0.89 10.84 1.25 11.46C1.97 12.67 3.49 13.09 4.86 12.93C6.26 12.78 7.63 12.09 8.46 10.97C9.28 9.86 9.46 8.3 8.76 7.09C8.1 5.94 6.73 5.38 5.41 5.47C4.02 5.57 2.83 6.4 2.1 7.53C1.25 8.82 1.08 10.39 1.33 11.89C1.46 12.66 1.7 13.43 2.03 14.15C2.31 14.77 2.68 15.37 3.17 15.86C3.66 16.35 4.28 16.73 4.97 16.87C5.81 17.04 6.67 16.9 7.47 16.65C8.82 16.24 10.19 15.56 11.04 14.42C11.43 13.89 11.68 13.26 11.74 12.61C11.79 11.97 11.67 11.32 11.4 10.73C11.14 10.14 10.71 9.62 10.17 9.25C9.61 8.87 8.93 8.65 8.25 8.61C7.56 8.56 6.87 8.69 6.25 8.98C5.66 9.26 5.16 9.71 4.81 10.25C4.12 11.31 3.97 12.7 4.42 13.87C4.91 15.12 6.03 16.05 7.32 16.48C8.67 16.93 10.13 16.76 11.39 16.13C12.66 15.49 13.72 14.39 14.2 13.08C14.45 12.42 14.54 11.7 14.4 11.01C14.28 10.39 13.94 9.81 13.42 9.42C12.48 8.71 11.13 8.64 10.05 9.09C8.83 9.6 8.13 10.8 7.97 12.04C7.8 13.35 8.22 14.75 9.17 15.71C9.66 16.21 10.3 16.56 11.01 16.64C11.82 16.73 12.62 16.48 13.34 16.12C14.01 15.78 14.65 15.34 15.23 14.87C15.79 14.41 16.3 13.89 16.75 13.32C17.62 12.2 18.2 10.86 18.26 9.44C18.33 8.06 17.92 6.65 16.98 5.6C16.13 4.64 14.82 4.08 13.53 4.07C12.88 4.06 12.24 4.2 11.67 4.49C11.06 4.8 10.56 5.28 10.24 5.86C9.92 6.44 9.77 7.12 9.91 7.77C10.05 8.41 10.47 8.97 11.01 9.35C11.56 9.72 12.24 9.93 12.91 9.89C13.57 9.85 14.2 9.6 14.72 9.21C15.25 8.81 15.67 8.29 15.93 7.69C16.2 7.06 16.26 6.38 16.16 5.71C15.95 4.31 15.02 3.08 13.79 2.35C12.48 1.57 10.88 1.32 9.36 1.46C8.57 1.54 7.77 1.72 7.06 2.1C6.47 2.4 5.97 2.84 5.59 3.37C4.86 4.38 4.59 5.67 4.78 6.89C4.98 8.17 5.77 9.28 6.84 10.03C7.93 10.8 9.31 11.19 10.66 11.1C12.05 11.01 13.38 10.43 14.44 9.56C15.56 8.64 16.41 7.39 16.76 6C16.96 5.27 17.01 4.5 16.87 3.75C16.75 3.06 16.45 2.41 16.02 1.85C15.16 0.73 13.86 -0.01 12.46 -0.3C10.83 -0.63 9.08 -0.43 7.51 0.1C6.22 0.54 4.88 1.31 4.34 2.6C3.91 3.64 4.05 5.04 4.99 5.78C6.19 6.74 7.86 6.17 9 5.41C9.62 5 10.18 4.5 10.57 3.88C10.95 3.3 11.16 2.6 10.96 1.93C10.77 1.26 10.21 0.78 9.56 0.53C8.78 0.22 7.89 0.29 7.09 0.49C5.76 0.81 4.51 1.5 3.59 2.5C2.72 3.45 2.19 4.68 2.27 5.97C2.35 7.15 2.89 8.35 3.86 9.1C4.39 9.51 5.02 9.76 5.69 9.85C6.44 9.94 7.22 9.82 7.92 9.54C9.33 8.97 10.36 7.81 11.01 6.51C11.33 5.86 11.6 5.16 11.59 4.44C11.59 3.74 11.29 3.1 10.69 2.69C10.14 2.32 9.43 2.19 8.77 2.16C8.08 2.12 7.38 2.17 6.7 2.29C5.34 2.52 4.03 3.04 2.92 3.84C1.84 4.61 0.95 5.64 0.46 6.86C-0.01 8.01 -0.12 9.29 0.11 10.5C0.33 11.69 0.91 12.84 1.83 13.67C2.89 14.64 4.36 15.15 5.81 15.11C7.24 15.07 8.6 14.49 9.61 13.5C10.62 12.51 11.23 11.16 11.22 9.75C11.22 9.01 11.05 8.27 10.7 7.61C10.37 6.98 9.88 6.44 9.28 6.04C8.7 5.65 8.01 5.4 7.3 5.34C6.62 5.28 5.94 5.42 5.32 5.71C4.09 6.28 3.17 7.42 2.77 8.67C2.28 10.23 2.5 11.92 3.05 13.43C3.51 14.71 4.22 15.93 5.22 16.88C6.24 17.84 7.54 18.48 8.98 18.53C10.53 18.6 12.08 18.03 13.29 17.1C14.4 16.25 15.25 15.07 15.66 13.76C16.07 12.47 16.02 11.08 15.48 9.84C14.96 8.64 14.02 7.59 12.81 7.01C11.56 6.4 10.08 6.36 8.77 6.79C7.43 7.24 6.31 8.16 5.66 9.39C5.01 10.62 4.83 12.07 5.18 13.41C5.51 14.69 6.33 15.8 7.4 16.59C8.46 17.38 9.79 17.85 11.13 17.82C12.49 17.79 13.8 17.27 14.85 16.44C15.89 15.62 16.66 14.46 16.92 13.18C17.18 11.9 16.98 10.56 16.4 9.39C15.79 8.16 14.73 7.11 13.41 6.62C12.7 6.36 11.91 6.29 11.18 6.51C10.53 6.7 9.92 7.13 9.61 7.73C8.99 8.92 9.61 10.39 10.65 11.14C11.87 12.03 13.54 12.11 15 11.88C15.74 11.76 16.48 11.53 17.12 11.14C17.7 10.78 18.18 10.29 18.5 9.69C19.1 8.55 19.14 7.16 18.7 5.96C18.22 4.67 17.2 3.63 16.02 2.92C14.68 2.11 13.14 1.71 11.58 1.53C10.71 1.43 9.84 1.4 8.96 1.4C8.14 1.4 7.31 1.4 6.49 1.45C5.79 1.49 5.08 1.58 4.46 1.89C3.87 2.19 3.42 2.69 3.25 3.32C3.08 3.92 3.15 4.57 3.37 5.15C3.62 5.78 4.04 6.3 4.59 6.71C5.59 7.46 6.85 7.78 8.07 8.01C8.23 8.04 8.31 7.79 8.14 7.76C6.78 7.5 5.32 7.13 4.32 6.13C3.51 5.33 3.09 3.93 3.71 2.91C4.41 1.76 5.99 1.71 7.21 1.69C8.87 1.65 10.56 1.62 12.21 1.88C13.64 2.1 15.05 2.56 16.25 3.38C17.32 4.11 18.2 5.14 18.55 6.38C18.87 7.53 18.76 8.83 18.09 9.85C17.33 11.02 15.92 11.53 14.56 11.67C13.2 11.82 11.61 11.69 10.56 10.73C9.68 9.93 9.25 8.48 10.08 7.5C10.5 7.01 11.13 6.72 11.78 6.65C12.52 6.57 13.27 6.79 13.91 7.14C15.05 7.76 15.9 8.79 16.36 9.96C16.81 11.11 16.9 12.39 16.54 13.57C16.18 14.75 15.37 15.79 14.33 16.5C13.29 17.21 12.03 17.61 10.75 17.55C9.49 17.49 8.26 16.98 7.3 16.19C6.33 15.38 5.62 14.29 5.38 13.07C5.12 11.79 5.35 10.43 6.02 9.3C6.68 8.17 7.78 7.34 9.06 6.98C10.32 6.61 11.7 6.71 12.86 7.32C13.97 7.92 14.83 8.92 15.29 10.07C15.77 11.27 15.78 12.58 15.37 13.8C14.95 15.03 14.13 16.14 13.08 16.94C11.92 17.81 10.45 18.33 8.98 18.27C7.63 18.22 6.39 17.62 5.43 16.71C4.49 15.82 3.8 14.68 3.35 13.49C2.81 12.06 2.56 10.46 2.97 8.96C3.3 7.74 4.12 6.63 5.28 6.02C5.83 5.73 6.46 5.57 7.1 5.59C7.77 5.61 8.42 5.82 8.99 6.16C9.57 6.51 10.05 7 10.38 7.58C10.74 8.19 10.92 8.89 10.95 9.58C11 10.92 10.47 12.22 9.53 13.2C8.62 14.15 7.37 14.76 6.03 14.84C4.65 14.93 3.22 14.5 2.17 13.62C1.27 12.87 0.69 11.82 0.43 10.7C0.16 9.57 0.22 8.36 0.59 7.26C0.99 6.09 1.77 5.08 2.74 4.3C3.75 3.49 4.97 2.94 6.24 2.65C6.88 2.5 7.53 2.42 8.19 2.41C8.83 2.4 9.49 2.44 10.09 2.68C10.7 2.91 11.15 3.38 11.28 4C11.42 4.66 11.23 5.37 10.97 5.98C10.43 7.23 9.54 8.42 8.29 9.08C7.08 9.72 5.53 9.85 4.33 9.11C3.35 8.51 2.76 7.44 2.58 6.34C2.39 5.15 2.76 3.97 3.5 3.02C4.27 2.02 5.41 1.29 6.62 0.89C7.36 0.65 8.17 0.49 8.95 0.63C9.59 0.74 10.22 1.08 10.55 1.64C11.28 2.88 10.12 4.27 9.14 5C8.12 5.76 6.54 6.48 5.32 5.7C4.37 5.1 4.2 3.8 4.54 2.83C4.97 1.6 6.24 0.83 7.43 0.41C8.9 -0.12 10.55 -0.35 12.1 -0.1C13.45 0.12 14.74 0.76 15.63 1.78C16.06 2.28 16.37 2.86 16.54 3.49C16.72 4.18 16.72 4.91 16.58 5.61C16.31 6.96 15.57 8.19 14.54 9.12C13.58 10 12.36 10.62 11.04 10.8C9.77 10.98 8.45 10.69 7.35 10.05C6.29 9.42 5.44 8.43 5.13 7.25C4.84 6.13 5 4.9 5.57 3.89C5.86 3.39 6.25 2.94 6.72 2.61C7.34 2.18 8.07 1.93 8.81 1.8C10.24 1.55 11.79 1.68 13.11 2.29C14.36 2.86 15.37 3.9 15.77 5.2C15.96 5.81 16 6.48 15.85 7.1C15.7 7.69 15.38 8.24 14.94 8.67C14.51 9.11 13.96 9.43 13.35 9.57C12.74 9.7 12.1 9.62 11.55 9.35C10.99 9.08 10.51 8.63 10.28 8.06C10.05 7.48 10.1 6.85 10.33 6.28C10.81 5.12 11.99 4.41 13.25 4.34C14.47 4.27 15.72 4.73 16.59 5.56C17.54 6.49 17.99 7.81 18 9.1C18.01 10.44 17.55 11.73 16.77 12.83C15.99 13.96 14.91 14.89 13.73 15.6C13.08 15.99 12.35 16.33 11.58 16.39C10.88 16.44 10.21 16.23 9.67 15.81C8.67 15.01 8.17 13.71 8.2 12.47C8.24 11.3 8.78 10.07 9.86 9.47C10.8 8.95 12.07 8.91 13.01 9.46C13.52 9.76 13.89 10.23 14.07 10.78C14.27 11.41 14.23 12.09 14.04 12.72C13.67 13.99 12.71 15.08 11.55 15.75C10.39 16.41 9.02 16.66 7.71 16.32C6.47 16 5.35 15.19 4.79 14.05C4.27 12.99 4.33 11.68 4.89 10.65C5.17 10.12 5.58 9.67 6.1 9.36C6.65 9.03 7.3 8.86 7.94 8.86C8.58 8.85 9.23 9.01 9.79 9.32C10.33 9.63 10.76 10.09 11.05 10.63C11.64 11.71 11.62 13.04 10.95 14.09C10.23 15.2 8.96 15.87 7.72 16.3C6.96 16.56 6.15 16.75 5.35 16.67C4.66 16.6 4.03 16.29 3.53 15.84C3.04 15.4 2.67 14.85 2.38 14.27C2.05 13.62 1.82 12.91 1.66 12.2C1.35 10.77 1.43 9.24 2.16 7.94C2.77 6.85 3.83 5.96 5.13 5.77C6.32 5.58 7.67 5.99 8.38 6.98C9.14 8.06 9.07 9.55 8.37 10.63C7.66 11.73 6.38 12.43 5.07 12.64C3.83 12.85 2.34 12.57 1.59 11.49C1.2 10.93 1.05 10.25 1.07 9.58C1.1 8.85 1.34 8.13 1.67 7.48C2 6.82 2.41 6.19 2.85 5.6C3.26 5.04 3.74 4.52 4.29 4.09C4.81 3.68 5.41 3.37 6.06 3.23C6.66 3.09 7.29 3.1 7.88 3.27C8.46 3.43 8.99 3.77 9.32 4.26C9.68 4.78 9.8 5.42 9.74 6.04C9.68 6.66 9.44 7.27 9.04 7.76C8.63 8.3 8.06 8.71 7.45 9.01C6.83 9.33 6.14 9.53 5.44 9.64C4.69 9.75 3.91 9.75 3.18 9.54C2.56 9.36 2.01 9.03 1.58 8.57C1.19 8.15 0.9 7.63 0.73 7.09C0.55 6.54 0.48 5.95 0.53 5.37C0.58 4.77 0.78 4.19 1.07 3.66C1.7 2.54 2.74 1.68 3.91 1.13C5.32 0.47 6.92 0.3 8.46 0.38C9.27 0.42 10.07 0.52 10.86 0.68C11.6 0.84 12.35 1.06 12.98 1.49C13.52 1.87 13.96 2.41 14.12 3.04C14.28 3.71 14.06 4.39 13.66 4.94C13.23 5.53 12.6 5.94 11.93 6.24C11.27 6.55 10.56 6.78 9.85 6.95C8.56 7.25 7.05 7.33 5.93 6.5C4.97 5.79 4.58 4.52 4.76 3.39C4.95 2.13 5.84 1.11 6.95 0.51C8.24 -0.19 9.76 -0.31 11.19 -0.04C11.99 0.11 12.76 0.37 13.49 0.7C14.08 0.97 14.66 1.31 15.12 1.77C15.6 2.25 15.88 2.86 15.85 3.54C15.82 4.26 15.47 4.94 15.01 5.5C14.52 6.08 13.92 6.55 13.33 7.02C12.75 7.48 12.16 7.93 11.53 8.32C10.91 8.7 10.23 9.02 9.51 9.17C8.93 9.29 8.32 9.28 7.75 9.12C7.2 8.97 6.69 8.71 6.29 8.31C5.89 7.9 5.66 7.38 5.67 6.81C5.67 6.18 5.97 5.58 6.37 5.1C6.81 4.57 7.36 4.13 7.95 3.78C9.24 3 10.76 2.47 12.3 2.59C13.57 2.7 14.8 3.36 15.5 4.41C15.83 4.92 16.02 5.5 16 6.11C15.99 6.71 15.77 7.29 15.42 7.8C14.72 8.84 13.53 9.58 12.3 9.88C11.15 10.17 9.69 10.1 8.91 9.1C8.16 8.14 8.4 6.77 9.04 5.82C9.73 4.81 10.98 4.22 12.21 4.13C13.47 4.03 14.73 4.44 15.63 5.33C16.51 6.21 16.99 7.46 16.96 8.69C16.92 9.95 16.32 11.14 15.4 12.02C14.47 12.92 13.22 13.49 11.9 13.56C10.61 13.62 9.23 13.22 8.36 12.26C7.57 11.4 7.24 10.12 7.56 9.01C7.73 8.43 8.09 7.93 8.57 7.56C9.08 7.18 9.7 6.95 10.33 6.88C11.71 6.71 13.04 7.27 14.07 8.14C14.61 8.6 15.09 9.14 15.48 9.73C15.87 10.35 16.18 11.04 16.27 11.77C16.36 12.44 16.26 13.13 15.96 13.75C15.67 14.36 15.23 14.9 14.69 15.33C13.64 16.17 12.25 16.54 10.9 16.45C9.55 16.36 8.29 15.78 7.37 14.83C6.46 13.91 5.88 12.69 5.77 11.42C5.66 10.1 6.06 8.78 6.82 7.69C7.62 6.54 8.83 5.66 10.23 5.34C10.93 5.17 11.67 5.15 12.37 5.33C12.99 5.5 13.58 5.81 14.04 6.24C14.52 6.68 14.86 7.25 14.99 7.89C15.13 8.58 15.02 9.31 14.74 9.96C14.2 11.24 12.98 12.21 11.69 12.74C11.04 13.01 10.24 13.17 9.61 12.78C9.07 12.46 8.81 11.86 8.71 11.28C8.5 9.99 9.04 8.6 9.96 7.67C10.89 6.74 12.23 6.3 13.55 6.42C14.2 6.47 14.83 6.68 15.38 7.01C15.89 7.33 16.31 7.78 16.6 8.3C17.18 9.3 17.32 10.59 16.83 11.65C16.28 12.82 15.12 13.53 13.96 14.04C13.34 14.31 12.69 14.52 12.05 14.74C11.26 15 10.46 15.26 9.63 15.39C8.29 15.61 6.76 15.46 5.72 14.52C4.64 13.55 4.53 11.97 5.07 10.7C5.35 10.04 5.79 9.45 6.3 8.95C6.8 8.44 7.42 8.01 8.13 7.83C8.75 7.68 9.38 7.78 9.9 8.14C10.35 8.46 10.66 8.95 10.83 9.46C11.01 10.01 11.03 10.59 10.87 11.14C10.7 11.78 10.34 12.35 9.9 12.85C9.44 13.35 8.91 13.79 8.33 14.16C7.69 14.58 7 14.94 6.26 15.15C4.93 15.53 3.36 15.34 2.44 14.26C1.62 13.29 1.56 11.91 1.65 10.71C1.7 10.06 1.79 9.4 1.92 8.75C2.05 8.09 2.23 7.42 2.57 6.82C2.87 6.29 3.28 5.82 3.84 5.53C4.33 5.27 4.9 5.15 5.46 5.21C5.99 5.27 6.49 5.54 6.78 5.99C7.13 6.55 7.12 7.24 6.95 7.86C6.77 8.51 6.43 9.12 6 9.64C5.56 10.17 5 10.64 4.33 10.88C3.66 11.13 2.89 11.18 2.21 10.92C1.64 10.71 1.18 10.29 0.88 9.78C0.24 8.74 0.16 7.4 0.45 6.24C0.73 5.11 1.49 3.95 2.74 3.69C3.72 3.48 4.99 3.86 5.32 4.87C5.68 5.95 4.75 7.14 3.65 7.33C2.4 7.55 1.19 6.55 0.87 5.43C0.5 4.13 1.15 2.73 2.17 1.89C3.11 1.12 4.35 0.75 5.56 0.64C5.74 0.63 5.74 0.37 5.56 0.38C4.07 0.51 2.51 1.03 1.51 2.17Z" stroke="#3E356A" stroke-opacity="1.000000" stroke-width="0.300000"/>
</svg>
