<svg width="59.000000" height="59.000000" viewBox="0 0 59 59" fill="none" xmlns="http://www.w3.org/2000/svg" xmlns:xlink="http://www.w3.org/1999/xlink">
	<desc>
			Created with Pixso.
	</desc>
	<defs/>
	<path id="Vector" d="M34.66 -0.84C24.17 -1.51 14.69 2.03 7.5 9.88C-3.7 22.09 -2.51 43.72 12.05 52.56C17.21 55.69 21.36 57.8 27.21 58.59C41.08 60.46 54.98 49.5 58.24 36C61.99 20.46 51.47 0.23 34.66 -0.84L34.66 -0.84ZM49.31 11C48.57 11.74 47.83 12.48 47.07 13.21C44.71 15.48 42.23 17.63 39.99 20.02C30.13 30.52 30.17 30.48 21.03 41.57C19.18 43.82 17.37 46.1 15.57 48.39C15.15 48.93 14.76 49.48 14.37 50.03C20.12 53.36 26.02 56.08 32.79 55.3C43.08 54.13 52.52 45.44 55 35.29C57.02 27.05 54.38 17.6 49.31 11L49.31 11ZM48.12 9.55C44.6 5.6 39.97 2.87 34.45 2.52C24.98 1.91 16.45 5.03 9.96 12.12C0.65 22.28 0.62 41.13 12.76 49.07C13.21 48.43 13.65 47.8 14.13 47.19C15.93 44.9 17.75 42.62 19.6 40.37C28.82 29.18 28.75 29.25 38.67 18.68C40.93 16.28 43.42 14.12 45.79 11.84C46.57 11.09 47.34 10.32 48.12 9.55L48.12 9.55ZM42.73 25.16C42.88 24.84 42.84 24.47 42.63 24.19C42.42 23.91 42.07 23.77 41.73 23.83C39.09 24.29 36.45 27.83 35.28 29.89C32.66 34.51 32.03 41.79 36.83 45.31C38.63 46.64 40.35 47.38 42.52 47.85C43.64 48.1 45.11 47.04 44.48 45.8C43.74 44.34 42.36 43.77 41.63 42.09C39.3 36.76 40.39 30.25 42.73 25.16L42.73 25.16ZM39.94 27.08C38.77 28.19 37.7 29.4 36.89 30.84C34.56 34.96 33.98 41.59 38.69 44.33C39.66 44.9 40.69 45.38 41.76 45.7C37.37 40.98 37.96 32.74 39.94 27.07L39.94 27.08ZM45.95 29.12C45.96 29.12 45.98 29.11 45.99 29.11C46.25 29.03 46.52 29.15 46.64 29.39C47.24 29.89 47.56 30.73 47.87 31.43L48.05 31.45C48.05 31.45 49.31 31.35 49.68 31.77C50.28 32.19 49.55 32.84 49.28 33.19C49.06 33.48 48.84 33.78 48.62 34.07C48.7 34.2 48.79 34.32 48.86 34.45C48.93 34.56 48.99 34.67 49.04 34.79C49.18 35.12 49.25 35.5 49.44 35.81C49.57 36 49.56 36.24 49.44 36.42C49.41 36.53 49.35 36.64 49.23 36.73C49.05 36.86 48.83 36.87 48.65 36.78L48.44 36.72C48.23 36.68 48.02 36.63 47.81 36.58C47.01 36.39 46.77 36.32 45.96 36.01C45.14 36.43 44.46 37.08 43.62 37.46C43.21 37.83 42.59 37.43 42.71 36.91C42.84 35.96 43.69 35.17 44.04 34.26C43.74 33.78 43.61 33.56 43.3 33.11C43.22 33 43.13 32.89 43.05 32.79C42.75 32.49 42.49 31.86 43.13 31.69C43.46 31.4 44.42 31.45 44.42 31.45C44.55 31.19 44.7 30.94 44.85 30.68L45.51 29.63C45.54 29.39 45.71 29.17 45.95 29.12ZM36.63 32.3C36.38 32.65 36.14 33.4 36.04 33.77C35.87 34.37 35.7 35.15 35.65 35.78C35.62 36.15 35.6 36.83 35.8 37.21C36.11 37.78 36.98 37.31 36.68 36.74C36.47 36.34 36.63 35.83 36.7 35.38C36.86 34.36 37.1 33.77 37.43 32.89C37.48 32.77 37.54 32.64 37.52 32.51C37.45 32.07 36.88 31.94 36.63 32.3ZM46.21 30.6L45.79 31.27C45.59 31.6 45.49 32.03 45.18 32.25C45.07 32.45 44.93 32.5 44.72 32.54C44.58 32.57 44.43 32.58 44.29 32.59C44.57 33 44.8 33.38 45.07 33.81C45.09 33.85 45.11 33.88 45.12 33.92C45.21 34.05 45.23 34.16 45.2 34.33C45.19 34.41 45.16 34.49 45.12 34.55C45.1 34.61 45.08 34.66 45.05 34.72C44.95 34.95 44.84 35.17 44.74 35.4C44.72 35.44 44.7 35.48 44.68 35.51C45.02 35.26 45.36 35.03 45.76 34.88C45.93 34.81 46.11 34.83 46.26 34.93C46.6 35.06 46.95 35.19 47.31 35.3C47.54 35.37 47.79 35.42 48.03 35.49C48.07 35.5 48.11 35.5 48.14 35.51C48.09 35.35 48.03 35.2 47.94 35.06L47.52 34.42C47.54 34.44 47.54 34.42 47.53 34.41C47.48 34.35 47.44 34.28 47.42 34.21C47.29 33.96 47.39 33.67 47.63 33.53L48.34 32.6C48.2 32.59 48.07 32.58 47.94 32.57C47.55 32.52 46.9 32.51 46.88 31.94C46.69 31.48 46.46 31.03 46.21 30.6ZM16.13 32.68C16.13 32.66 16.14 32.65 16.15 32.63L16.08 32.78C15.58 33.58 14.48 33.23 14.34 32.38C14.28 32.02 14.65 31.44 14.76 31.19C14.85 30.96 14.93 30.72 15.01 30.49C15.26 29.7 16.35 29.62 16.72 30.35C16.97 30.86 16.66 31.44 16.48 31.9L16.27 32.39L16.13 32.68C16.12 32.69 16.11 32.71 16.11 32.72L16.13 32.68ZM22.5 30.35C22.63 30.55 22.93 30.99 23.01 31.12C23.42 31.84 22.75 32.72 21.97 32.52C21.79 32.47 21.63 32.37 21.51 32.24C21.47 32.19 21.44 32.14 21.4 32.08C21.17 31.74 20.59 31.1 20.76 30.58C20.9 30.14 21.46 29.99 21.86 29.98C21.98 29.98 22.22 30 22.33 30.1C22.4 30.18 22.46 30.26 22.5 30.35ZM26.61 28.65C26.3 28.32 25.98 27.99 25.68 27.64C25.6 27.55 25.53 27.44 25.48 27.33C25.23 26.72 25.7 26.03 26.35 26.03C27.08 26.03 27.78 27.14 28.09 27.49C28.33 27.76 28.54 28.14 28.52 28.52C28.48 29.19 27.73 29.53 27.17 29.3C26.88 29.18 26.68 28.93 26.61 28.65ZM17.79 14.96C19.41 14.6 21.01 14.42 22.65 14.79C25.68 15.49 26.69 18.28 26.38 21.07C25.96 24.94 22.65 29.26 18.59 29.14C16.04 29.07 14.05 27.18 13.29 24.81C12.72 23.02 13.3 20.68 13.76 19C14.25 17.2 15.6 14.76 17.79 14.96ZM12.14 26.81L11.11 27.43C10.67 27.69 10.1 27.54 9.84 27.09C9.58 26.64 9.73 26.06 10.18 25.8L11.17 25.2C11.19 25.19 11.2 25.18 11.22 25.17L11.23 25.17C11.61 24.81 12.2 24.84 12.54 25.22C12.78 25.49 12.82 25.76 12.79 26C12.77 26.17 12.7 26.36 12.56 26.52C12.48 26.62 12.06 26.85 12.06 26.85C12.06 26.85 12.12 26.83 12.14 26.81L12.14 26.81ZM17.68 16.92C17.8 16.94 17.93 16.93 18.05 16.91C19.59 16.55 21.78 16.14 23.22 17.15C24.68 18.18 24.74 19.9 24.31 21.51C23.72 23.67 22.04 26.73 19.61 27.15C17.72 27.47 15.75 26.31 15.19 24.43C14.73 22.85 15.19 21.08 15.61 19.56C15.83 18.77 16.53 16.73 17.68 16.92ZM27.93 23C28.44 23.06 28.94 23.12 29.44 23.15C29.56 23.15 29.68 23.13 29.79 23.09C30.25 22.91 30.48 22.37 30.31 21.91C30.18 21.55 29.87 21.38 29.5 21.33C29.09 21.27 28 20.99 27.51 21.37C26.89 21.86 27.16 22.89 27.93 23ZM11.53 20.91C11.05 20.84 10.31 20.74 9.85 20.96C9.15 21.31 9.21 22.38 9.95 22.64C10.2 22.73 10.56 22.67 10.81 22.68C11.21 22.69 11.59 22.8 11.94 22.54C12.57 22.06 12.3 21.02 11.53 20.91ZM20.5 18.07C20.16 18.09 20.06 17.69 20.27 17.48C20.42 17.33 20.78 17.41 20.94 17.47C21.16 17.56 21.52 17.8 21.71 17.95C22.21 18.38 22.59 18.87 22.86 19.47C22.97 19.71 23.13 19.96 23.1 20.22C23.08 20.46 22.82 20.59 22.62 20.48C22.4 20.37 22.33 19.91 22.27 19.77C22.19 19.6 22.11 19.44 22.02 19.29C21.7 18.78 21.23 18.34 20.69 18.09L20.5 18.07ZM11.66 16.77C11.92 16.9 12.17 17.03 12.41 17.18C12.52 17.24 12.62 17.32 12.7 17.41C13.12 17.92 12.87 18.72 12.26 18.92C11.74 19.08 11.17 18.68 10.78 18.43C10.49 18.25 10.15 18.04 10.08 17.68C9.93 16.96 10.52 16.33 11.22 16.51C11.4 16.56 11.55 16.65 11.66 16.77ZM29.52 15.77C30.06 15.59 30.74 16.23 30.79 16.75C30.86 17.44 30.07 17.54 29.61 17.7C29.16 17.86 28.69 18.19 28.2 17.99C27.6 17.74 27.43 16.92 27.89 16.45C27.97 16.36 28.08 16.29 28.19 16.24C28.45 16.12 28.97 15.92 28.97 15.92L29.52 15.77ZM23.29 12.88C23.37 12.77 23.45 12.66 23.53 12.54C23.94 11.98 24.73 10.33 25.74 11.08C26.76 11.83 25.44 13.1 25.03 13.66C24.93 13.81 24.81 14.01 24.67 14.15C24.13 15.03 22.69 14.43 22.95 13.41C23.02 13.14 23.1 13.07 23.29 12.88ZM13.84 13.44C13.73 13.37 13.65 13.28 13.61 13.17C13.51 12.94 13.47 12.82 13.52 12.58C13.62 12.09 14.3 12.09 14.54 12.46C14.76 12.79 14.94 13.15 15.16 13.48C15.43 13.89 15.06 14.43 14.59 14.34C14.2 14.26 13.99 13.7 13.84 13.44ZM17.69 10.28C17.84 9.11 19.37 8.98 19.47 10.15C19.5 10.17 19.51 10.19 19.52 10.2C19.52 10.24 19.52 10.28 19.52 10.32C19.66 11.09 19.63 11.88 19.68 12.66C19.74 13.66 18.35 14.05 17.91 13.15C17.53 12.35 17.63 11.28 17.67 10.44C17.66 10.36 17.64 10.34 17.69 10.28Z" fill="#3E356A" fill-opacity="1.000000" fill-rule="evenodd"/>
</svg>
